<?xml version="1.0" encoding="utf-8"?>
<svg viewBox="-1.793 1.687 24 24" fill="none" xmlns="http://www.w3.org/2000/svg">
  <path d="M 15.805 16.643 C 15.805 16.091 15.581 15.591 15.219 15.229 C 14.857 14.867 14.357 14.643 13.805 14.643 C 13.253 14.643 12.753 14.867 12.391 15.229 C 12.029 15.591 11.799 16.095 11.799 16.647 L 11.805 20.143 L 11.818 21.847" stroke="#333333" stroke-width="2" stroke-linecap="round" stroke-linejoin="round"/>
  <path d="M 7.825 21.391 L 7.82 20.204 L 7.815 19.017 L 7.81 17.83 L 7.805 16.643 C 7.805 15.814 7.973 15.025 8.277 14.307 C 8.58 13.589 9.019 12.943 9.562 12.4 C 10.105 11.857 10.751 11.418 11.469 11.115 C 12.187 10.811 12.977 10.643 13.805 10.643 C 14.634 10.643 15.423 10.811 16.141 11.115 C 16.859 11.418 17.505 11.857 18.048 12.4 C 18.591 12.943 19.03 13.589 19.334 14.307 C 19.637 15.025 19.805 15.815 19.805 16.643 L 19.805 18.393 L 19.805 20.143" stroke="#333333" stroke-width="2" stroke-linecap="round" stroke-linejoin="round"/>
  <rect x="0.805" y="10.643" width="4" height="13" stroke="#333333" stroke-width="2" stroke-linecap="round" stroke-linejoin="round" rx="2" ry="2"/>
  <circle cx="2.805" cy="5.643" r="2" stroke="#333333" stroke-width="2" stroke-linecap="round" stroke-linejoin="round"/>
  <path d="M 11.802 18.407 L 11.802 17.133 C 11.837 23.058 11.825 21.643 11.825 21.643 C 11.825 22.196 11.601 22.696 11.239 23.057 C 10.878 23.419 10.378 23.643 9.825 23.643 C 9.273 23.643 8.773 23.419 8.411 23.057 C 8.049 22.695 7.825 22.195 7.825 21.643 L 7.826 19.128 L 7.808 16.466" stroke="#333333" stroke-width="2" stroke-linecap="round" stroke-linejoin="round"/>
  <path d="M 19.816 18.401 L 19.809 17.127 C 19.817 18.471 19.801 19.407 19.803 20.096 C 19.811 22.447 19.815 21.619 19.815 21.619 C 19.815 22.172 19.554 22.704 19.192 23.065 C 18.831 23.427 18.331 23.651 17.778 23.651 C 17.226 23.651 16.726 23.427 16.364 23.065 C 16.002 22.703 15.778 22.203 15.778 21.651 L 15.779 19.136 L 15.812 16.79" stroke="#333333" stroke-width="2" stroke-linecap="round" stroke-linejoin="round"/>
</svg>